<svg xmlns="http://www.w3.org/2000/svg" viewBox="0 0 64 64" id="FootballLocation">
  <path d="m17 29.19.45.78 9.23 16 1.08 1.87L32 55.06l4.19-7.22L37.24 46l9.21-15.88.55-.95c.17-.33.34-.67.5-1a16.78 16.78 0 0 0 1.5-7 17 17 0 0 0-34 0 16.78 16.78 0 0 0 1.5 7c.16.31.34.66.5 1.02ZM32 9.83a11.6 11.6 0 1 1-11.59 11.6A11.6 11.6 0 0 1 32 9.83Zm-8.72 9.67-.57.47c0-.14.05-.26.07-.39l.07-.21.26-.82.24-.79.07-.23a1.33 1.33 0 0 0 .17-.36l.19.72.27 1Zm4.11 9.5.24.68-.34-.19-.17-.14-.69-.5-.67-.51-.18-.12a2.37 2.37 0 0 0-.28-.22h.7l1 .08Zm-.27-2.45-3.26-.28a9.73 9.73 0 0 1-1.22-4l2.56-2.12 3 1.06.94 2.79Zm-1.48-8.07-.78-3.39a9.48 9.48 0 0 1 3.43-2.37l2.83 1.81v3.07l-2.58 1.9Zm5.53-6-.63-.39.39-.05h2.14l.39.05-.62.39L32 13Zm2.24 11.11h-2.82l-.9-2.75L32 19.15l2.31 1.69Zm0 1.33 2 2.5-1.17 3.1a9.39 9.39 0 0 1-2.18.3 9.45 9.45 0 0 1-2.17-.3l-1.17-3.1 2-2.5ZM38 28h.73a3.5 3.5 0 0 0-.28.27l-.19.12-.66.51-.69.5-.18.14a2.59 2.59 0 0 0-.33.19l.24-.68.36-.94Zm-5.1-13.45 2.84-1.81a9.45 9.45 0 0 1 3.42 2.37l-.77 3.39-2.9 1-2.59-1.89Zm7.84 5-.74-.68.27-1 .19-.72c.06.14.11.25.17.36l.07.23.26.79.24.82.07.21c0 .13.05.25.07.39Zm-1.91.69 2.55 2.12a9.73 9.73 0 0 1-1.22 4l-3.25.28-2-2.55.92-2.76Zm10.06 32.59c0 4.68-8.7 7.2-16.89 7.2s-16.89-2.52-16.89-7.2c0-3.25 4.2-5.46 9.5-6.51l1 1.82c-5.23.91-8.54 2.87-8.54 4.69 0 2.4 5.82 5.06 14.25 5.19h1.19c8.48-.11 14.34-2.78 14.34-5.19 0-1.82-3.33-3.79-8.6-4.7l1.05-1.82c5.37 1.04 9.59 3.26 9.59 6.52Z" fill="#34a853" class="color000000 svgShape"></path>
</svg>
